<svg
        version="1.1"
        id="Layer_1"
        xmlns="http://www.w3.org/2000/svg"
        x="0"
        y="0"
        viewBox="0 0 512 512"
        xml:space="preserve"
    >
        <path
            d="M483.8 150.5c0-8.6-1.8-16.2-5.6-22.7-3.7-6.4-9.1-11.8-16.5-16.1-60.6-35-121.4-69.8-182-104.8-16.3-9.4-32.2-9.1-48.4.5-24.1 14.2-145 83.5-181 104.3-14.8 8.6-22 21.7-22.1 38.8v211c0 8.4 1.8 15.9 5.3 22.3 3.7 6.6 9.2 12.1 16.7 16.5 36 20.9 156.9 90.1 181 104.3 16.2 9.6 32.1 9.9 48.4.5 60.6-35 121.3-69.9 182-104.8 7.5-4.3 13.1-9.9 16.7-16.5 3.6-6.4 5.3-13.9 5.3-22.3.2 0 .2-140.6.2-211"
            fill="#a179dc"
        />
        <path
            d="M256.7 255.3L33.6 383.8c3.7 6.6 9.2 12.1 16.7 16.5 36 20.9 156.9 90.1 181 104.3 16.2 9.6 32.1 9.9 48.4.5 60.6-35 121.3-69.9 182-104.8 7.5-4.3 13.1-9.9 16.7-16.5L256.7 255.3"
            fill="#280068"
        />
        <path
            d="M483.8 150.5c0-8.6-1.8-16.2-5.6-22.7L256.7 255.3l221.8 128.5c3.6-6.4 5.3-13.9 5.3-22.3v-211"
            fill="#390091"
        />
        <path
            fill="#fff"
            d="M388.1 207.3v24h24v-24h12v24h24v12h-24v24h24v12h-24v24h-12v-24h-24v24h-12v-24h-24v-12h24v-24h-24v-12h24v-24h12zm24 36h-24v24h24v-24z"
        />
        <path
            fill="#fff"
            d="M257.2 86.7c62.6 0 117.3 34 146.6 84.6l-.3-.5-73.7 42.4c-14.5-24.6-41.1-41.2-71.7-41.5h-1c-46.6 0-84.3 37.8-84.3 84.3 0 15.2 4.1 29.5 11.1 41.8 14.5 25.4 41.9 42.5 73.2 42.5 31.5 0 59-17.3 73.5-43l-.4.6 73.6 42.6c-29 50.1-82.9 84.1-144.8 84.7h-1.9c-62.8 0-117.7-34.2-146.9-85.1C96 315.4 87.9 286.7 87.9 256c0-93.5 75.8-169.3 169.3-169.3z"
        />
    </svg>
