<svg
        xmlns="http://www.w3.org/2000/svg"
        xml:space="preserve"
        id="Layer_1"
        x="0"
        y="0"
        version="1.1"
        viewBox="0 0 512 512"
    >
        <path
            d="M507 211c-1.4-1.2-14.2-11-41.8-11-7.1 0-14.5.7-21.6 1.9-5.2-36.5-35.4-54.1-36.6-55.1l-7.4-4.3-4.7 6.9c-5.9 9.3-10.4 19.8-13.1 30.5-5 20.8-1.9 40.3 8.5 57-12.6 7.2-33 8.8-37.3 9.1H15.9C7.1 246 0 253.2 0 262c-.5 29.6 4.5 59.2 14.7 87.1 11.6 30.5 29 53.2 51.3 67 25.2 15.5 66.3 24.3 112.6 24.3 20.9 0 41.8-1.9 62.5-5.7 28.7-5.2 56.3-15.3 81.7-29.8 20.9-12.2 39.7-27.7 55.6-45.8 26.8-30.3 42.7-64.2 54.4-94.2h4.7c29.2 0 47.3-11.7 57.2-21.7 6.6-6.2 11.6-13.8 15.2-22.4l2.1-6.2-5-3.6z"
            fill="#0091e2"
        />
        <path
            d="M47.3 236.3h45.1c2.1 0 4-1.7 4-4.1v-40.5c0-2.1-1.7-4.1-4-4.1H47.3c-2.1 0-4 1.7-4 4.1v40.5c.2 2.5 1.8 4.1 4 4.1zm62.2 0h45.1c2.1 0 4-1.7 4-4.1v-40.5c0-2.1-1.7-4.1-4-4.1h-45.1c-2.1 0-4 1.7-4 4.1v40.5c.2 2.5 1.9 4.1 4 4.1m63.4 0H218c2.1 0 4-1.7 4-4.1v-40.5c0-2.1-1.7-4.1-4-4.1h-45.1c-2.1 0-4 1.7-4 4.1v40.5c0 2.5 1.6 4.1 4 4.1zm62.5 0h45.1c2.1 0 4-1.7 4-4.1v-40.5c0-2.1-1.7-4.1-4-4.1h-45.1c-2.1 0-4 1.7-4 4.1v40.5c-.1 2.5 1.8 4.1 4 4.1zm-125.9-57.9h45.1c2.1 0 4-1.9 4-4.1v-40.5c0-2.1-1.7-4.1-4-4.1h-45.1c-2.1 0-4 1.7-4 4.1v40.5c.2 2.2 1.9 4.1 4 4.1m63.4 0H218c2.1 0 4-1.9 4-4.1v-40.5c0-2.1-1.7-4.1-4-4.1h-45.1c-2.1 0-4 1.7-4 4.1v40.5c0 2.2 1.6 4.1 4 4.1m62.5 0h45.1c2.1 0 4-1.9 4-4.1v-40.5c0-2.1-1.9-4.1-4-4.1h-45.1c-2.1 0-4 1.7-4 4.1v40.5c-.1 2.2 1.8 4.1 4 4.1m0-58.2h45.1c2.1 0 4-1.7 4-4.1V75.6c0-2.1-1.9-4.1-4-4.1h-45.1c-2.1 0-4 1.7-4 4.1v40.5c-.1 2.2 1.8 4.1 4 4.1m62.9 116.1h45.1c2.1 0 4-1.7 4-4.1v-40.5c0-2.1-1.7-4.1-4-4.1h-45.1c-2.1 0-4 1.7-4 4.1v40.5c.2 2.5 1.8 4.1 4 4.1"
            fill="#0091e2"
        />
    </svg>
